# xmcd
#
# Track frame offsets:
#	150
#	15798
#	40087
#	56932
#	75791
#	96509
#	117331
#	127355
#
# Disc length: 1916 seconds
# Revision: 0
# Processed by: cddbd v1.5.2PL0 Copyright (c) Steve Scherf et al.
# Submitted via: dBpowerAMP V12.0
#
DISCID=61077a08
DTITLE=Jeremy Garrett - Circles
DYEAR=2019
DGENRE=Americana
TTITLE0=I Am Who I Am
TTITLE1=I Can't Lay Your Lovin' Down
TTITLE2=Travel Light
TTITLE3=What Would We Find?
TTITLE4=Baker's Jam
TTITLE5=Circles
TTITLE6=Oracle
TTITLE7=The Highway
EXTD=
EXTT0=
EXTT1=
EXTT2=
EXTT3=
EXTT4=
EXTT5=
EXTT6=
EXTT7=
PLAYORDER=
